<mxfile>
    <diagram id="jk9QbmiDU_1SHoFj1TiW" name="Page-1">
        <mxGraphModel dx="723" dy="472" grid="1" gridSize="10" guides="1" tooltips="1" connect="1" arrows="1" fold="1" page="1" pageScale="1" pageWidth="850" pageHeight="1100" math="0" shadow="0">
            <root>
                <mxCell id="0"/>
                <mxCell id="1" parent="0"/>
                <mxCell id="14" value="Terraform" style="fillColor=none;strokeColor=#5A6C86;dashed=1;verticalAlign=bottom;fontStyle=1;fontColor=#5A6C86;align=center;html=0;fontSize=23;spacingBottom=-31;strokeWidth=3;" parent="1" vertex="1">
                    <mxGeometry x="150" y="80" width="660" height="790" as="geometry"/>
                </mxCell>
                <mxCell id="2" value="&lt;font style=&quot;font-size: 23px&quot;&gt;AWS Cloud&lt;/font&gt;" style="points=[[0,0],[0.25,0],[0.5,0],[0.75,0],[1,0],[1,0.25],[1,0.5],[1,0.75],[1,1],[0.75,1],[0.5,1],[0.25,1],[0,1],[0,0.75],[0,0.5],[0,0.25]];outlineConnect=0;html=1;whiteSpace=wrap;fontSize=12;fontStyle=0;shape=mxgraph.aws4.group;grIcon=mxgraph.aws4.group_aws_cloud_alt;verticalAlign=top;align=left;spacingLeft=30;dashed=0;" parent="1" vertex="1">
                    <mxGeometry x="200" y="254" width="580" height="470" as="geometry"/>
                </mxCell>
                <mxCell id="4" value="" style="outlineConnect=0;fontColor=#232F3E;gradientColor=none;fillColor=#3334B9;strokeColor=none;dashed=0;verticalLabelPosition=bottom;verticalAlign=top;align=center;html=1;fontSize=12;fontStyle=0;aspect=fixed;pointerEvents=1;shape=mxgraph.aws4.rds_postgresql_instance;" parent="1" vertex="1">
                    <mxGeometry x="462" y="590" width="78" height="78" as="geometry"/>
                </mxCell>
                <mxCell id="5" value="" style="points=[[0,0,0],[0.25,0,0],[0.5,0,0],[0.75,0,0],[1,0,0],[0,1,0],[0.25,1,0],[0.5,1,0],[0.75,1,0],[1,1,0],[0,0.25,0],[0,0.5,0],[0,0.75,0],[1,0.25,0],[1,0.5,0],[1,0.75,0]];outlineConnect=0;fontColor=#232F3E;gradientColor=#60A337;gradientDirection=north;fillColor=#277116;strokeColor=#ffffff;dashed=0;verticalLabelPosition=bottom;verticalAlign=top;align=center;html=1;fontSize=12;fontStyle=0;aspect=fixed;shape=mxgraph.aws4.resourceIcon;resIcon=mxgraph.aws4.s3;" parent="1" vertex="1">
                    <mxGeometry x="670" y="450" width="78" height="78" as="geometry"/>
                </mxCell>
                <mxCell id="12" value="Amazon Cloudfront" style="outlineConnect=0;fontColor=#232F3E;gradientColor=none;strokeColor=#ffffff;fillColor=#232F3E;dashed=0;verticalLabelPosition=middle;verticalAlign=bottom;align=center;html=1;whiteSpace=wrap;fontSize=10;fontStyle=1;spacing=3;shape=mxgraph.aws4.productIcon;prIcon=mxgraph.aws4.cloudfront;" parent="1" vertex="1">
                    <mxGeometry x="460" y="270" width="80" height="110" as="geometry"/>
                </mxCell>
                <mxCell id="15" value="Backend" style="text;html=1;align=center;verticalAlign=middle;resizable=0;points=[];autosize=1;fontSize=23;" parent="1" vertex="1">
                    <mxGeometry x="219" y="544" width="100" height="30" as="geometry"/>
                </mxCell>
                <mxCell id="16" value="Frontend" style="text;html=1;align=center;verticalAlign=middle;resizable=0;points=[];autosize=1;fontSize=23;" parent="1" vertex="1">
                    <mxGeometry x="654" y="544" width="110" height="30" as="geometry"/>
                </mxCell>
                <mxCell id="17" value="RDS" style="text;html=1;align=center;verticalAlign=middle;resizable=0;points=[];autosize=1;fontSize=23;" parent="1" vertex="1">
                    <mxGeometry x="470" y="683" width="60" height="30" as="geometry"/>
                </mxCell>
                <mxCell id="74t94Ggk77aS48stWRMf-20" value="" style="endArrow=classic;html=1;strokeWidth=7;fontSize=23;" parent="1" edge="1">
                    <mxGeometry width="50" height="50" relative="1" as="geometry">
                        <mxPoint x="499.5" y="190" as="sourcePoint"/>
                        <mxPoint x="499.5000000000002" y="244" as="targetPoint"/>
                    </mxGeometry>
                </mxCell>
                <mxCell id="74t94Ggk77aS48stWRMf-21" value="" style="endArrow=classic;html=1;strokeWidth=7;fontSize=23;" parent="1" edge="1">
                    <mxGeometry width="50" height="50" relative="1" as="geometry">
                        <mxPoint x="580" y="360" as="sourcePoint"/>
                        <mxPoint x="651" y="409" as="targetPoint"/>
                    </mxGeometry>
                </mxCell>
                <mxCell id="74t94Ggk77aS48stWRMf-22" value="" style="endArrow=classic;html=1;strokeWidth=7;fontSize=23;" parent="1" edge="1">
                    <mxGeometry width="50" height="50" relative="1" as="geometry">
                        <mxPoint x="345" y="559.9999999999999" as="sourcePoint"/>
                        <mxPoint x="425" y="610.5" as="targetPoint"/>
                    </mxGeometry>
                </mxCell>
                <mxCell id="74t94Ggk77aS48stWRMf-23" value="" style="endArrow=classic;html=1;strokeWidth=7;fontSize=23;" parent="1" edge="1">
                    <mxGeometry width="50" height="50" relative="1" as="geometry">
                        <mxPoint x="654" y="480.29" as="sourcePoint"/>
                        <mxPoint x="560" y="480" as="targetPoint"/>
                        <Array as="points">
                            <mxPoint x="644" y="480.29"/>
                        </Array>
                    </mxGeometry>
                </mxCell>
                <mxCell id="3" value="" style="points=[[0,0,0],[0.25,0,0],[0.5,0,0],[0.75,0,0],[1,0,0],[0,1,0],[0.25,1,0],[0.5,1,0],[0.75,1,0],[1,1,0],[0,0.25,0],[0,0.5,0],[0,0.75,0],[1,0.25,0],[1,0.5,0],[1,0.75,0]];outlineConnect=0;fontColor=#232F3E;gradientColor=#F78E04;gradientDirection=north;fillColor=#D05C17;strokeColor=#ffffff;dashed=0;verticalLabelPosition=middle;verticalAlign=middle;align=center;html=1;fontSize=12;fontStyle=0;shape=mxgraph.aws4.resourceIcon;resIcon=mxgraph.aws4.lambda;labelPosition=left;" parent="1" vertex="1">
                    <mxGeometry x="230" y="450" width="78" height="78" as="geometry"/>
                </mxCell>
                <mxCell id="19" value="Amazon API Gateway" style="outlineConnect=0;fontColor=#232F3E;gradientColor=none;strokeColor=#ffffff;fillColor=#232F3E;dashed=0;verticalLabelPosition=middle;verticalAlign=bottom;align=center;html=1;whiteSpace=wrap;fontSize=10;fontStyle=1;spacing=3;shape=mxgraph.aws4.productIcon;prIcon=mxgraph.aws4.api_gateway;" vertex="1" parent="1">
                    <mxGeometry x="462" y="434" width="80" height="110" as="geometry"/>
                </mxCell>
                <mxCell id="20" value="" style="endArrow=classic;html=1;strokeWidth=7;fontSize=23;" edge="1" parent="1">
                    <mxGeometry width="50" height="50" relative="1" as="geometry">
                        <mxPoint x="434" y="480.28999999999996" as="sourcePoint"/>
                        <mxPoint x="340" y="480" as="targetPoint"/>
                        <Array as="points">
                            <mxPoint x="424" y="480.29"/>
                        </Array>
                    </mxGeometry>
                </mxCell>
                <mxCell id="6" value="SAM" style="strokeColor=#5A6C86;dashed=1;verticalAlign=middle;fontStyle=1;fontColor=#5A6C86;align=center;fillColor=none;fontSize=22;horizontal=0;labelPosition=left;verticalLabelPosition=middle;spacing=0;spacingRight=0;spacingLeft=0;spacingBottom=-374;strokeWidth=3;" parent="1" vertex="1">
                    <mxGeometry x="130" y="424" width="420" height="156" as="geometry"/>
                </mxCell>
                <mxCell id="i234ZGSfoUT5dTkyvSWL-21" value="" style="shape=image;verticalLabelPosition=bottom;labelBackgroundColor=#ffffff;verticalAlign=top;aspect=fixed;imageAspect=0;image=data:image/png,iVBORw0KGgoAAAANSUhEUgAAAIAAAACACAYAAADDPmHLAAAACXBIWXMAAAsTAAALEwEAmpwYAAAM3klEQVR42u1dC2wU1xW1+QtCKUUBikBFDszu0oi0QbS0iURq8wshpBAgpIS4QEjcQg0BXBxM+BUaEwcINBAKKcReaFNSIZWWlog2CCmIVLSotEFNoaUYg2MwtjHY+De703t3Z53FOzv7ZuZ9Znffk46EEMy+e+/Z+96cmXc2I0MOOeSQQw455JBDDjlojSs5vomAY4A/ALJlRizn75uAI4A/AZ5Otsn7AK0ATUczIEuWlTh//QH1UfkLAL6VTAEUR00+grWytMT5W2yQv71JMfnKJ0dhABcNAviHLC0xAU4Y5O9Gec6ILskw+YcMJh+BIstL1P7VOPnLToYANpgQoFCWOGH+Fprkb2cyBHDeJIAzssQJ83fMJH+VV3JGdHLz5L0mk0cEAUNlmePmr2+HuycjPOrmAIoSTB6xTJY6bv5yCfK31c0BnCUI4JQsddz8HSHIX3nFOCXTjZPPIph8RNQYJMsdk7/egCbCHI52YwAFhJNHLJYlj8nfbAv5K3ZjAB9bCOBDWfKY/L1vIX8XqyaMdNXkh+g7fNIAUOjoL8seyZ+3J+SjwUL+EA+5iQBLLE4esVCWvj1/023kb4ObAjhpI4BjsvTt+TtoI3+fuGXyA/WdvdUAUPDom/bFH+fr3uHRrxV43UCAPJuTR+TKb79vioP8FbkhgOMOAjgiCeDb7yB/Z0VPvh+gzUEAKHz0TuPidwXUOMifJvRNK/jw+Q4nj5idxgQYTyF/BSIDOEohgPfTmAC7KeTvY1GT76O/7Ok0ABRAeqZb8StyRnSGuKso5A8FuCEiCDCHwuQjmJ6G3/6xFPOXLyKAwxQDOJiGBNhBMX8neU++F+AuxQDqK3J83dOn+N5MiLmCYv5QiBvIkwAzKU4+gifS6Ns/hkH+8ngG8B6DAPalEQFKGOTvOK/J9wDcZhBATUW2t2uqF//qY8Mwh5cY5A8FuX48CDCVweQjGJ8G3/6HGeZvPo8AShkGsDsNCLCJYf6Osp38OF83+JA6hgFUwWd0TtXia+tCBPiUYf5QmOvDkr2TGE4+grEp/O1/kEP+5rAMYC+HAHakMAHWcsjfYTaTzx7RBY8ocwigojzHk5miBDjHIX8o0PViMflsDpOPYEwKFn84x/zNZBHATo4BlKQgAQo55u892tp1J7joNY4BXLo24cFUI8AZjvlDoa4Hzck/wnHyETycQsUfavHgDA1MpRnAVgEE2JRCBFgmIH+lVCZ/OduHjy4vCwjgUy11CHBKQP7qYOnuRmPyowVMPoKvpkDxB9k8OEMDk2gEUCyQAGtSgACLBObPmbeg7vl3QWAA51KAAB8KzN+N8hxfFyeTHylw8hEMT+Li32/i+ccL9r0F6xZ6impmeptEonq6F0/OLk9GVE/z7hWdv7oFHvumUmqZ8k91ldKq/kjRRKFpoafFBV3IFhrne4TmTl0JtStVKgIHhlv3FlT9ihegqfsUVV0GEBdI8NqkhN55rsPVCb42dbESEJa3l6Fm7yhtoRr6lUfsEKBI/8+a+jYwKV8JigqmdpY36brAzae9Ir/9QfUtpaW9fn5lqx0CnI26gKa+oTSLCujuC56k6wCN8zwtwghQDLWKrp1fudzqfyDTSvGzOlwgjHXCSBC8NtHRMXSuqBjvU9tEtf/VoW9+0KB+o60QoMCQAKUQ1I9hXREQGOxok2YZgDsXMe1/BdTmXVj7jWrnV4qtEOB0nItooY3FUv7svrsgeZaBhu8LaP9LoCY/h71avLr5lQta2Uii4g+O00I+x8+UltBGg2+QgatJsAzo7Z//XdO2mHXfCCNJCJBPcCFNfY3/fqBmhtf1XaB6mpf/t/8nRMVHrCchwEnCiwXVIoVrsCisuJ0Ad3I5iz+F0PbLoP2T1eyTRMUfAFAJL6ap++HfLue4KYSdNQosrm3/43yBtkUc2z+KPb9oF3tI4TUjQJ7Fi2nq7pBIxG1TiAKLWwlw47sc2z8KczvvEXtIUWRGgOM2LqipW/ntBxrmuffZwJ3nObb/zcTrfkecjVf8foA2mxfV1PV89gMosOBO23UEgPbfuojTcvhqXLGHFFlGBJjn4IJhkWglnyeHKLS4jQDXn+Ik/hSYij2kWGFEgN87vGhYJHqZ/SYIhRa3EeD2XA7iD4o9e0zFHlKc7lj8PoBmChfWQk+hGItEKLS4bBkItP6QQ/t/k1KNwsvH4GgCzKF04TCK2W8KUXBxTfufyqH9b6RW/AjyowlwmPLFg6GnUgwTgoKLWwhQ/xzj9v+KJbGHFCcjxe8FaKR8cS20UVnBri2i4ILCiwsIEGz9AcP2j29j7XO86TMCXnMAEmAmg4uHgU+nlrATiVB4EU2AqikMxR8Ue3ZR2fTFQx4S4JcMPyD8lIrVMvC8+GXg1vcYtv8S6ut+R3yABPgf4w8JP61ikCAUXq4IXgZa8hhpH2sdiz0kqEcCVDAnAG5gCtkkCgUYUcX/7AlG7T8s9gSY1wX2fkiA33L4IC301IqBSHR7rrhl4NazDLR/fNtqrwNJ3ho+QgJkc2g1YeDTK8qvl6MAI+r0bfNLDG51t9t6wmcXMyK3gqu5fehm+vuB60/yXwYqJzNo/5uYb/qisU07dK8cPA1Qw+GDg+oaut+c+jn8nw3Uzaas/q0KiT08OvEdQK6mGT8SHmLhlTBnIlEBPfEEhRjeHjzNL1IkMTuxpyP+BlASvRbWGbDG0qthdrCHrkhUNYXfMlD5uK+VqtjzNlOxJ/LwZwugm5WzAY8CyplO7E16+wEUZHgRoPYZiuv/G8zX/euAx+0dD/crfQG/YTrBjXRIgIIMLwLgkXUqxV/HfMf/AcDZbwlph7KQCC8yeWAUEYleoSMSoTDDuvh4VJ3K+w54xK6UmdiDxCoI+D2dqNmdwAVHAM4xmTAlDwIUZpi3/1kU2j9bseeipYOgFknQA/AWE+Fol3MPguaX2C8DeFTd8dn9Hcxavz/gV9j/GDd80FOAm9QDKHG+H0CBhln7n+hrc9z+X2Oy6bsNmMvVAUs/RHqC+u3KWmf31yjQsCIAHlF3VPwiJmLPGcAwITZoumaw2tF5AqPXyx2IRCjQMGv/Cxy0/+Wwx9lPVVtBIpVYurdnSIRvU32vADdIDkQiFGqomz6F23/AptgTCB2ho1f8KsBEV5kiwoS+CPg1tSC3218Kap+hvwzcnOFA+99Cdd3/Y+hdPjcO7dBgJMILgAYqwW6ytylk4S3YON+m+LOeWvHxzmG5ekBx/+8pwUR9gL9TEImCNo0qqXoL2vb8W0lN7LkAGJVUPrm6ZrDdsWZgUySi6S1oy/Nv6T1GjU5QCrgvad2yYfJTANWOkmDDqJKmt2CDdc+/jkaNtl7YxBNbKfGLGRDIIMCfHSXEulElFW9BW55/xY7X/b8AHshIpdHmVzpBUKsA9m+H1lm7M6DhLVg93aL4s9rR69y4X9gM6JqRqgOCGwO4ZFsksmBUScNb0JLnHx6Fsy/2VALGZ6TD0I+j/8q2BwG5UaUjb0Fo/wFiz7/ERo1mOAron5FOQzvxWMSVxLpmYMGo8qYDb0FLnn/bbK37+H+WtpV5MzPSdUACPDHO5BSNKp14CxJ7/m2wVfx/A76eIQeSwNMd31O3tHkqCxlVJi6QTW9BYs+/Qltn9/fhsXxZ+dhuMBlwg7ZRpR1vQSLPP+tGjbcAz8pKm5Pgy5b8CgmMKhtteAsSeP5ZNWo8bWjPJkfsCBzwoGawklgz2GK+H7DsLUji+Udu1IjLw09hmesqK2u9G3wD8B9Co8pmWt6CCT3/yI0arwFyZCWdkeALgINOjSqteAveNjN9WkFs1Pg7wP2ygjQ0Ay1EhFz9YGMikUg18RYMOPL8IzNqxKUhv9U/LFNWjn43UAB/tWtUSeItiEfNTYwaE236/gX4mqwUW82gm37QMWjVqJLEWxCPmts0anxH3tvz7QaT9IOPxEaVBN6Cxp5/5kaNdYBZsiJiSDBQPwBJbFRp5i1o6PkXPrsfT+w5BRgqKyGWBJn67xy2kBhVmplKxXj+hY0aW+Lc229sK1O6yAq4hwij9YORpkaVZt6CMZ5/rxuu+1cB35EZdycJegPKEhlVGnkLxnj+rTEUe9BSr5/MtPuJMFc/MGloVGm0DNzj+Rf7qxxNgMVaqVfe2ycRCYbpBydjjCqNvAXbPf+WxJzdP0/0i5tyuJAEZUo3/QBloKNRZbS3YOVkX0uUUWP0ur8H0FNmMvm7wQTAZ9FGldHegu2ef58bNda2u2jKkTIkGKAfrAzi07xob8GQ59+qdrHnI8BXZMZSkgTDM0MHLN9V7qJIhN6CIc+/sNiDu/4NAHlvnwbdYJS6Wzl/6zlPU+1sbzPsDf4LfzdWZia9SHBf06ueXQ0FHj/8+UsyI3LIIYcccsghhxxypM34P0J7sknhCM7qAAAAAElFTkSuQmCC;" vertex="1" parent="1">
                    <mxGeometry x="433" y="970" width="94" height="94" as="geometry"/>
                </mxCell>
                <mxCell id="i234ZGSfoUT5dTkyvSWL-22" value="" style="shape=image;verticalLabelPosition=bottom;labelBackgroundColor=#ffffff;verticalAlign=top;aspect=fixed;imageAspect=0;image=data:image/png,iVBORw0KGgoAAAANSUhEUgAAAtAAAADwCAYAAAApZFODAAAACXBIWXMAAAsSAAALEgHS3X78AAAgAElEQVR42u3dbWxcV37f8d+QowfKqmakqpZ3bZfjru02rROOi/UmRdNyODPtboGkGjZBu5sm0XiBtgssCtFv+iKBVmMQ7RZFA9NvFinQRqNg0wbYbkk1RdLuksMRArTeajceutis0bXWw8gLi40icbwypZVJTl/cQ5uS+DDkPffec+98PwChB5Lz8L9n7v3dc889J9XtdgUAAGDbymQuKylv/rn5771oSVre+PuRc+1lKgpXpAjQAADAZ1AuSMqZr4IJyyMBPNWCCdVNSW1J7SPn2k22AAjQAADA5bC8EZIL8nqURxx4WQsmVLckNY+ca7fZUiBAAwCAKENzRVLFhObhGLzkRUkzJkzPsAVBgAYAAEEH5qwJzBVJp2P+djomTM8QpkGABgAAtoPzRmg+k9C3uBGm64ydBgEaAADsNzTnJFXN13AfvfVFSVMmTDPDBwjQAABg1+CclzSh5PY292qjV7rGzYcgQAMAgK2Cc0FSTdIo1XjIRYI0CNAAAIDgTJAGARoAAOwhOOdMcD5DNQjSIEADAIDtg3NW3hjn81TDl46kqSPn2jVKAQI0AADJDc8VeTNMDFMNaxYlVZn+DgRoAACSFZyzkuqK/+InLrsoaYKp7wjQVAEAgPiH54oJzxmqEbiOvN5oVjYkQAMAgBgGZ3qdo/OqvJsM6Y0mQAMAgJiE57y8RUAY6xydBXm90S1K0T8GKAEAALEMz1VJrxOeIzciqWm2B/oEPdAAAMQvPNfFvM4uevXIufYEZSBAAwAAd4JzVlJTXq8n3HRJ3pAOxkUToAEAQMThmfHO8bEgqUCIJkADAIBow3NTTFEXJx0Torm5MIG4iRAAAMIz7MvIu7kwTykI0AAAILzwXCU8E6LhHoZwAADgbni+QCUSgeEcBGgAABBweGbYBiEaDmMIBwAAhGcEj+EcCUIPNAAAhGeEZ1FSninu4o0eaAAA3AjPWXnzPBOek21YXk90llIQoAEAgD9NsUhKvxiRVKcMBGgAALBPK5O5ulieu9+cXpnMTVGGeGIMNAAA0YbnCUmvUIm+NX7kXHuGMhCgAQBAb+E5L+l1KtHXmN4uhhjCAQBANOF546ZB9LeMGA9NgAYAAD2pi5sG4RlhPHS8MIQDAICQrUzmKpKmqQQeMHbkXLtJGQjQAADg/vCck9QS8z3jYSyyEhMM4QAAIFxThGdsY1hSjTK4jx5oAABCwtAN9IihHI6jBxoAgHDCc1bMtoDe0E4I0AAAQNKEGLqB3gyvTOZqlMFdDOEAACBg5sbBt6kE9qAjKccNhW6iBxoAgOAxxy/2KkO7cRc90AAABGhlMleQNE8lsE9PHTnXblMGt9ADDQBAsGqUALSfZKEHGgCAgND7DEvohXYMPdAAAASnRglAO0oeeqABAAjAymQuL+l1KgFL6IV2SJoSAAASHGDzknKSCua/s5JGHvjRy+bPZUktSW1JrSPn2i2fL2GCrQCLJmhT7qAHGgCQlMCck1QxX6MWHrIjqWm+ZvbS+8e8zwgA80I7hB5oAECcQ3PWBOYJPdyz7FdG0mnz9crKZO6yvCWWZ3oIMVW2DgJojxWxzLcT6IEGAMQxOOdMaK4q/OWxO/IWuJjaLkivTObakobZUrBs4ci5dp4yEKABANhLcM6a4HzegZezZZBemcxVJE2ztRCQ5y2Mz4dPTGMHAIhLeK7Ku8HvvCMvKWNeS8uE5g1VthYCxI2EDqAHGgDgenDOSpqRnRsDg3TJhBtuHkSQOkfOtbOUgQANAMB24blgwnOGagAfGj9yrj1DGaLDEA4AgKvheULeMtiEZ+B+FUoQLaaxAwC4GJ7rks5QCYAA7SJ6oAEAhGcgXjJmeBMI0AAAwjPhGegRvdAEaAAA4ZnwDOxBgRJEh1k4AAAuhOeqpAtUAtiT4z0sK48A0AMNAIg6POcJz8C+FCgBARoA0H/heWORFAB7l6cEBGgAQP+pSRqmDMDepR45WZbEqoQEaABAvzDTcJ2lEsD+HHi2/ISkW5LqknJUhAANAEi+KUoA7F/q1LOPmr+ekfS2pKaY3i6c2jMLBwAgbMy6AfgMcIMH7gz92veHtvn2oq41/tXqtyc/vsNDLEtqbfw9PT7foqq9YylvAEAUapQA2L/B3M++J2nLAN299b3hte98eWq7729ldXpMkjomVLfNV1NSKz0+z1R5D57A0AMNAAgTvc+Af0Mv/melnvjklt9b+4PP3ujeXTpp8ekWTZhuSmqmx+fbBGgCNAAg3ADdkjRCJYB9hrejp24MvfStLQNy9/Y1rX3zV4N+CQsmTNf7degHQzgAAGGG5zzhGfDn4F//h4PbfvNa45ak4wG/hBHzdXZ1emxR3lzuU/3UM80sHACAMFUpAeAzvH3qxW0Dcvf6ldshv5xhedNRvr06PdZanR7ri884ARoAECam2AJ8GPzYT11LDZ3Y9vvry999MsKXNyLpwur02PLq9FhtdXossYu8EKABAKEwwzdYdRDw4cDPfH77gHyt4crLzEg6L6m9Oj1WX50eyxGgAQDYnwIlAPYvdejorYHntr+I073+v37o2EvOyFvkpZW0HmkCNACAAA3EQPqZv7O20/fXrr92xNGXvrlHeoIADQAAARoIJ0CPfnHbuZ27t69Jq7ePO/4WMpJeMTcbxnp/QIAGAARuZTKXNQdPAPsJbH/+E0upE09v/wPe9HVxMSJpfnV6bCquwzoI0ACAMOQpAbB/B174x8d2+n4E09fZcFbe+OjY7R8I0ACAMOQoAbA/qcEDdwaeqwxt+wP3OlFPX+fHsKTXV6fHagRoAAAI0IAVg7mffW+nuZ+19J0kvM3zq9NjzbgM6SBAAwAAOOzA3/7iqZ2+3/2Tb1xLyFsdVUyGdBCgAQAAHJU6dKyTeuKTO/7M2s3vHk3QWx6W1HR9SXACNAAAgKMO/vSZ9Z2+3731vThMX7dXGXlLgjsbognQAAAArga1T724czi+/r9vJfjtX1idHqsToAEAANCT9CfGlna8eVDS+rX5lYSX4YyLIZoADQAA4KDdbh6UpO77i4/3QSmcC9EEaABAGJYpAbCHgHby2Ru73TyopSv9VBKnQjQBGgAQhhYlAHp36B995eSuP3T7nTt9VpYzriy4QoAGAIShTQmA3qSfKd9MnXh615/rvtf+f31YnvMuzM5BgAYABO7IuTYBGuhBavDg3QOn/82Jnn54dSXdp2W6sDo9ViBAAwD6wWVKAOzs0M9/eX23mTc2rN98c7WPSzUT5YqFaZoqAMC2lclcVtLGwS0vKUtVgJ0NPvHCjYGf/IWTVKInGUn11emxQnp8PvSblAnQAAC/YTkvqWCCck7SKFUB9iZ16Fjn4Gf/HeF5b0YkTUmqEqABAK4H5pykignNBXk9QQD2G54H0iuHf+m3Mr0O3dgwcOKvpNdW3un38p1ZnR5rpsfn6wRoAIBroTkrr5enKq/XB4AlB//ur6V2nfN5yxR3ZJXqSZKmTIhuE6ABAC4E54KkCUmnqQZg36HPfOnO4AufH9rP76ZOjgyr/V8pohkPLe+KWCiYhQMAsFVwrq5M5lqS5gnPQDAOPDd+Y7/hWZK6x5+hiB8ZXZ0emwjryVLdbpeSAwA2gnNF3k05w1QDCE76mfLNg5/99yf8Ps7q7/38La3ePk5FJUkdSfkwhnLQAw0A0MpkLr8ymWtKmiY8A8E6VJi4ayM8S9Lgx/7mGhX9UEZSLYwnogcaAPo7OGfNAecs1QBCCM8+xjxvpXv7mta++asU9n5j6fH5ZpBPQA80APRveC5IahGegeClBg/cGfrcb8lmeJak1NEnNXDs6RtU+D61oJ+AAA0A/Rmea/JuEGS4BhB0eD722M3DX/iDodTTxWAe/6e/xAIs9xtdnR6rBrpNGcIBAH0VnLOSZsRqgUAoDjw3fuPA+CuBB9zuG1/prF39GosafWQxPT6fI0ADAPyG57ykplg5EAhc6tCxzuF/MJUJqtd5K+tz/+TG+ntv0Rv9kReDWqGQIRwA0B/huUJ4BsJx8FPVzuF/3gw1PEvSwN/6tydTQ4/dZAt8qBbYCRI90ACQ+PBclXSBSgDBSn9ibOnAZ379VOrE09G9iHsdrTW+cLN75/oJtoikgGbkoAcaAAjPAHwG56EvzurgL12INjxL0sGMBj/zn04MPvlpZubwBLI6IT3QAEB4BrDXAHXo6K0DI784MPjCL2ciD83bWbqitf/zm0vdH/3gVJ9vrqdsr05IgAYAwjOAHkPz4Mefv53O/8KTA89V4vPCl65o/Y8vXltf/u6TfbrpXk2Pz1vtiSZAA0DywjOzbQAWDGSfWBw4/tTA4JP5owOfGD2eeuKT8X5D9zrStcad7vVv3Vi//cP17so7/TIPvPUp7QjQAJCs8JyTt7og4RmBhUprIWToxMDgY3913dpry/3McOrwMX8PcviYYh+U92rpyn3/7N7841u6e/O9j3YsSwPrt3/44Xbq3ls+ptXbx2P2LsfT4/Mzth4sza4AABJlhvAcbli0HQJTp559dOB4zt5yz4/nlRqyOiEDq1cmzakXHmiDLxyXdF9AHtzp9+91pFv/9/4Qfv21Ja2v3t349/qfLqTVXVvt3rn+qLqrQxG8y4rZP9r5nNIDDQDJsDKZm5J0lkpYODgee+zm4X/6+ycsB08A9zrq/tFv3Fx79w/D/nB10uPzWQI0AGBzeK5ImqYSFg6MgwfuHH7pW0OEZyA4q9NjUTzt8+nx+ZaNB2IeaACIf3jOSqpTCTu6ax8QnoFkqtp6IAI0AMRfXYx7BhAXD9y0GKKCrQdiCAcAxNjKZK4gaZ5K2JU6dKxzcGzi4OALnx+iGoAl9zrq/uD37q69eXFd3dUjEb2K4+nx+WUCNAD0d4Bui1kR3Azhj5xcSh04fNfKY7k43dvm1/d0kQ3eB+H3oZk2dpnuTmt3D3d/fMO1VRCtTGfHNHYAEN/wPEF4dlf3/RunrHVRLb+jtXffsPfiXv9dd088Dh29lRrKvmfr8QY//nw6deiR1Z6e+8/9hWMDjz9/XCf+opxdnttvu7x9Tan3rz8UfrvLVwe69zp7nev5oenuYiAvC9PZ0QMNAPEMz1lJbTH2GQgmyA8euDPw6E/cSI9UTg48V4nvjaVLV9S9/trS+tJ3VrvvLz7OltXl9Ph8we+D0AMNAPE0QXgGgtNd+2Bo7d03nlx79w2lvvnlO+mf+Ln306NfPBmLnumlK+q+9fVra3/6nZNm0ZJTbNEP5a2cYNEDDQDxszKZWyZAA+FKDaRXDnzylz9If7rm3mfvXkfdqzO31q9+faD7wY/YN+zM942EBGgAiF94rkq6QCWAiIL0scduHv6Vr55wojf6XkfdN3+ns/aD6YMRLZEdR2Pp8fmmnwdgHmgAiJ8JSgBEp/ve9RN3f/Pv3em+8+1oX8cbX+ms/v4v3lm7+rUM4XlPfA/jIEADQIysTObykkaoBBBxiF77YOjub38umhC9dEVr/+3vdwjO+5YlQANAf6H3GXApRP/Hz3e6d26G84T3Oup++1/fWP2f/0KMc/aFHmgA6DMVSgA4FKJ//F7m3u/+sxuBP9HSFa1941c6a9f+x0mq7hs90ADQL1YmcxUx8wbgnLV3rpzsvtUILqS/+dW79Dq7hQANAPFB7zPgqB9/418uBRKeX/vSzbXv/YfDVNiqUQI0APSPAiUA3LT+Z1dPWb2h8F5Ha//9czfX3v3DE1TXPQRoAIiBlclcTtIwlQDctXrld+yMhb7X0VrjCze7d64TngnQAAAfCpQAcDxAf/+bg4RnAjQAgAANoEfdH98+3r35FuGZAA0AcESeEgAxcPNPCM8EaACAI1h9EIiBte839jUbR/ePfoPwTIAGANhilu8GEIsEvXp3z+H5ja90mG2DAA0AsCtLCYCEWrqitatfY4EUAjQAwDJ6oIEkutfR6mu/fpdCEKABAPbRAw0k0PprtRta/4BVBsN3mQANAAAQN0tXtP5nrZMUIp4I0ADgvgIlAOIhderZR3v5ubUrkx2qFZllAjQAAIAjBo7nhnb7me6bX73b/eBH3DgYnRYBGgAAwBGpp4s7/8C9jtbevNilUpGiBxoAAMCJ8PzIyV0XUelenbml7uoQ1YoUPdAAAAAuSA//jdXdfmb96tfJXgRoAAAASNLgXy49vuMPXGuIsc+R66TH5xnCAQB9YJkSAO4beK6y4/fX3/ov16hS5FpWtjV1BID+2OEDCM7gx35q53B8r6P15e8+SaUi1yRAAwAAOCD9zOjRnb7fvTpziyoRoAEA4WlTAsBtAz95+vhO3+fmQWcwhAMACNAAopZ65ORS6sTT236/e+t73DzohgUbNxASoAEgHhgDDTjswF/7ucM7/8BRKZVeoVKRq9t6IAI0ADjuyLn2sqQXJXWoBuBYeH5u/Eb607Ude5dTR5/U4F8a/4BqReqyzQCd6nZZTRIAAADoFT3QAAAAAAEaAAAAIEADAAAABGgAAACAAA0AAAAQoAEAAAAQoAEAAAACNAAAAECABgAAAAjQAAAAAAEaAAAAIEADAAAAIEADAAAABGgAAACAAA0AAAAQoAEAAAACNAAAAECABgAAAECABgAAAAjQAAAAAAEaAAAAIEADAAAABGgAAACAAA0AAAAgHeaTFUvlrKT8Vt9rzM022Rz9jfYBAADiINXtdoMKQ3lJBfOVkzTS469eltSW1JLUbMzNtuIU9HrUbszNtvs8LCe2fTzwPgt+ft/2iYOpe9bVtuu3XjtYdr2tRLAfikQQJ8MW2nWrMTe7TCT48DNY8LF9azF6rzlz/AlLrNpZXPcxYdU5HcAHryqpIimzz4cZNV9nzGMuSpqRVHfoAJiXNO/j91+WVFOf6aP2sdm8z99PWX49U6Z+rrbd+QDb3+Z/dsxJ2LL5s2V2unE6sc0HWa8ApQJ4TL/tekxSU5D5fI/6+Jy1G3Oz9Zi816qk8yEfBzf/c8Hsg5r6qFPIpYAd132M789zsVSubDp5WJY08+DxIW2hMWRNIKpJGg6gEMOSzko6WyyVFyRNxejDSW+G1z6qkiZoH3BIZlNIOL2pvS6aHe9MY252hjKhz/bXeZ8nIhuhlH1wbzauvI5u2gYLpn51ropE8hmomBPyjbyyaP7+SrFUvihpYmO7DPh8ogl5l9MvBBSOtmpsF4qlctu8SbjdEDfaxyu0D8TEsLyrG9PFUnm5WCrXTagA+sGEhccY5TPj+zj2iqRbZv+ToyShZZaqpGl5Pc5jjbnZVGNuNifpuLyrr2ckNU3H4P4CdLFULhRL5ZbZyJkI3uewOcA1aVxONsJCsVRu0z4Qcxmzw3zdtKUCJUGC99sbV5NdCeLw9j9vF0vl2kZoQ2DtPyevM3hB3oiK+WKp3C2Wyl15HYFZeUNDRuT1UO89QBdL5Zq8MTEjDrznUUktc9YANxrhlGkfw7QPJMio2aFyUoakqspeh8cZAp9V5+X1fNKzH5ya+bMirwdaki7K63mWvKGiWfN/Z4qlcq7nAF0slbOm1/m8Y286I++yfZ3tH23vhWkfZ2kfSHiQftsMTwKSxHabrlJSq0YI0YHKS7r0wI2CdTOrzJT5d3bT3ws9BWizwVpyo9d5pzPeFme9kYRn2gf6zSumN5r2hCTswyuyf9WQk0z7MoToQE9QHpzJa6pYKjfldRxfbszNbp7ta/ceaLOhmnLjknyvZ2gc1MINz7QP9KNRDmZIiGoAjznMzdyBhmiOY3Z1tPWc4Bt1rpnMs/Hv5YFdwlHOhKNMjIpASAo/PNM+0K+4rIq478dz2jSVo2X0QgcXoplm066mHl5AaML8X0f3j5GWpObADh+qrNlAmRgW4sO7JBHYTjcrb65K2gc4mHFShvgKMuSOctNtoLWlh9+eKXlXTWqb/9PM+Txl6l01f19ozM22duqBrsvtMa27OcONPoGifQCEaMTYpoWuglSj0oGGPljQmJttypth47ykgpkDumm+V5P0/KaTzaq0zTR2JlicTkBNXuHSaiA7XdoH8DCubCBuKgr+KmKFE8vAMM7cboiuboRosyDblJmDe0bS6/LGSFc2biQc2CIc5RJ2xlinWVgNz7QPYHtnOKAhRsLYl2dkb4EWbH0SBLshekzemOi8vDHQWUkvScpt9EpLUnqL358K6Iz0krwx1e3NL8AEso0XGcRUOiPFUnmiMTdLz5C9wEn7ALY3pXjc4NPRw9M2oU+YlTXDmj2ppmR2VlyUt0pdL3LmK2/5GFpxvD5RbHdf+zWTQZq7/Vx6iw+UzUvzHXMwmTIDsbd6oW3TAGckTZjXUJM3RZS1D2+xVK5v9xqwpx3uKO0DjrrcmJst9NiOc5tOymyfEA4XS+WaGTfnslYv9UJiVUN8ruFiqVzY3DmSEPX9vCczdHBC3lLdfmWKpXJ+0/zELmkncJt/aGCLs0RrBzN53d21vQSTxtxs0+zUXzQBy4aMWBXJVi+CK+3jJcvtgxsK+4RpQ/XG3Gy1MTebNfuaRctPM8G4T7jKXNk7E/LTso/9aB/UMkMFxi0dx3JUNcIAbc6IbPXqXWzMzRb89Og15mbr+mj+PT680e9wXWsfU5bbBydY/XswqzfmZnMBnJQxNhGuimJ/d5op7R7a98xYyibcDB9lgLYYMC+aMysrZ2kWQxJ3q7pxAkL7gKsHM9snZZy0I+n7cz4TFk7gJS1QiXgHaBvh4bKtcLRFSLKBgBRt7WgfcP1gZvOkbIQeN7jGLAbhZ9y/n+FOVbbAllhVMK4B2vS8+b2RphNUADEHtZcJSJHtcGkf6LcQbast0KbgGj+9wJfl716YjAnwuF+TEsQ0QMtOD95UkLMYmDva/d7okzF34GNvaB/otxDdlDcFkwufHcAKcy+LnxVk6/LfW8owDiRC2tJOfmM6sqDVJF2wcEDjbC/cEED7QBzV5H+mAgI0XOInvHbMeF0VS+WLPj4bIwmd0s6PpN4EWCiWyrWQnqtupr0NPUCP+HycmTDm0G3MzdaLpbLfArX5rO59hxeH9iGvZ8TvQkDczYyN/U3bZ1CQvKsaWeYYR9TMtIp+2nL9gb/7eayq6KiweaLtaq4Zld01G3bSDLsOaUuXrEMbAM9Za+g73di0j8bc7LJZs97Pjj3HVscDbddvL3Te0bAwWiyVuyE91xj77sj5HToxtfk4XCyVF7X/lQzPmMWG2v2+UcywGr8L2LVp3uEbsJj8kUy+F4Mwc12GxW9bHGGTw/K+jQVV4IKqj99d2CLsTkX4epISnrOysNQ1J6fRBeiCz8dY5PJkovkd0hD2/JacicMas29bjPgzBPgNalXtv7d4u7DsN/hV2SZqy3+nzSVaeDTSBBYELNSTK3NpkarD9knZMGVAjPkJqx1tMQzPDJm7pP0PPxgulsrVjRsTYyq/x+NNzpxQVyzuU5hDOsYBGkhazwB3iANIyv4sJ383cu10E3hd/sbvVmVhCEOEXon4+TsxPwGJtQFKAABAYtV8/v62Y53N/S1+hjiNmpvoYHnbgAANhI7eZwBJYG5S87Ma5oJZmXMndZ8vk4VV9r9tapQh3gE6RxnhSvugNwMOtmFuskZUqvI3L34vPZx+A3TFBH3sfdsi4gDd8vkYwzT+RGvHrH1wQgebJ2RZ+b/Zp0UlERFfKw+qhxvUzPR2fmaCyBAG9+zFHq4MIIQAbaN3pEApCdCOtA+/z3WZTQ7LbZceaERx8ud3poe9rCBbjzDo92N4rlOG6KVlp3ekIqZSSaq4tY+Kz993Kuw4uAx0s8/av9/2JHqKEJGq333/Hlai9buPGi6WypWQF92Km46kCcKzQwHazOXoZ0lOyVuWcyLoA72Zjifnd6fAwi97OvjHqX0U5P9yu2sB0fYy0Dlade8nLxYC9AKVRARtNyf/y0OHPUXbhOiI22k/Uo3hyfjLSb7RMb0pNJyx0PiDLlRd/uazlKSnxCXV/YTKOLSPmqX3arvXwM9NPNYCtKXxvP1kwue2c/GEDP3TduNmtFgq57ZYMryfdSTVGnOzTFeX8AB9vlgq14Nq/GbZS7/heZEPZ2QBOuj2UbHQPjoBnOG3fL6uquzN9Vmx9H4Sz8zmct7BEzKbFkIMWgxjCa/tZhXfm/ImxHjoDa+a8EyHn+MBekbSBQuPNyOvx8z2DiFnKURweWj/dXO5fWRlZzWrINqH353fiMVeGd8H1X7YmZv2ZKMtdBwf07nMnOeJVJH/KydRqRZLZUKjp0Ad3Daw6aB4ycLjjRRL5brNF7jpYGZjh1Bnk+87NLncPpoOtw8bPW9TFupUkP8e+sTPUGJO1puyM9SFE3ZEIc49uBnZuVKWBCPFUrlGGRwP0JbDwxlbIWlTOBqx8HCXuRveiXDpavtYDKg3zsZjnjZDmPzUycYVnER/fswwoJal9sQJO6JowwWL7TcqcQqNL0ka2+Zr0cLjn2dxMHdtDOFQY252xsJsC5tDUl5SZb+Xns3vz8jeTU8czHwIoH3k5N1V7Kd91C0eLILaadsKnVPFUrm915Bv+SSjmcS2bUJHTf576B88YW+y50DIqgl4D8PFUrkQk89Pa7vXaTo95i1lF0K0gwYCDBEj8uaRrO1lJbpiqZwzPZSvWwzPi8yd6FzIHLXQPkZcbx9m+IuNqcwykub3Ui8TDG32qCYiEJo2VCmWylPFUrltDnKjDn9WgJ7atfzf7O2K2N9IaIL1qzayFEM53JR+YIPXzYayFVwz8u5kP18slS+aA3DrwaEU5kCfl7fq1+kA3qdrZ+XVPUxQ7/vs1VY4jLB9bLSNoNpH0DunuuzNqXpe0kSxVJ6Rd4WmtdGLb4J13nxVZfdS7qUY3NCSL5bKO4X8nMKZxu8Svc+xM1UslcNq3xMBDSesJmh7nE7IlHY1eWO6/e53zhdL5WYM9yu5ELPOZu0w2k56mw/hfADPdWbj7LhYKodZSBcPZsMKbz5e2+89ae3jcghXJ2ZkdyNAWqQAAAQnSURBVFGCTAT1qst9GdnvSd6rjpiGK47CHDecDehxk9buqor5lRyzEJmtY2a9WCrnYzYzx4fHqZC9HEbbGdhigzdl57KDCzoJOyt3YYdA+9h7zdqSLsa4Tosssdt7iGGueYTNhLRM0j5LHDPvMyyGhjllYJv/rykZS9BWmUcxEElpH2GGnXrMtzd2d5F7LRDVsS6B7ynjZ/YhB/ehNmblOBvRkAj0GqBN6KzK66GLq1fpNQvsjDoJ7SPUsGN6IeLYC80NuL253JibrVIGhM3cI+J36NJO07Ht92vcwttLSi/0ssWTnPpebrxHcNI7bPCWmRd1Pobv62JjbpZxiMHuEFqmd2A6pu0jirAzofitEkYo3N2CWPwB0fF7rFtszM1OBfHCiqXyJfm78XskRlPa7XbMbBZL5VclnfX5UMPyrmiyz4nYwG4bXNKLhCNs0z5mYtg+FhRRr4blXogwvMxsErvvb8SSu4iI6Yn0e5NWPcCXaCOYJ+l4XpOdoRynTQcnXA3Q5qBfNyEpDpfrCc/hh8JYtY+ow4456YjDTZiXGnOzNVr4ricY3GeBKNnoDAgsQJsTcL+B8UxShiwwlKPPAvSmkFRwPCS9THiONES73j5edSXsmOFFLo+HXhBDN3ayKGmMEww4wO/n9FIIN1Lb6IVOzJBMi7NyZMQKy+4HaLPRW/IWIrjs2HvoSBrnYBb5TsH19jHhWL2qcrMnmiEJu5yIScoztAVRM5fw/a4nEEYAs/EcSTuhr8neUI4qnwbHA7Q56C835mYL8u7YdaG38ZKkHLNtOBMKaR97q9eEvDvVXem5f4khCTueWDzVmJudoD5whI2bBwPfN5rPi98rbsNJCoqWh3JMmWXc4XKA3rTxp+T1NkZ1GXpB3iXUCgczJ3cOUbePxbi0D3MAy5uwH5XLkp4P6k78GFuUt6LVU+bEok1J4AITmPxOXVcP8SXbeK5qkrYhQzn6NEBvnEGZy9BPmaAURi/aZUkvNuZmuYQagzPsCNtHLk7tozE3227MzVbkzZ0aZpC+bE40CmYIDrzQ/Kq8YT+5xtxsjeAMB9UcCbV7CYt+F98aNXNeJ2072hjKMVoslZm6N2RpGwd/SVVzN2hF3mWlEcsHtBlJdQ7ysQzStI+9HWSapnepar6GLT8Nn6ePLEhaltSU1JLUIizDdZv2pX5ciqCtT0m64PMxJpSgnujG3OyyGZpiY72NWrFUnmEfFqMAvbkhmDPajalVCuZrr6skLUhqm4Na09GDfEteb2EctF3ZUfRR+7Bx0lEzO8TcpjptfPW6EEtnIxiar2YMdq5Bf67aCTrA+N0PJWn424SkbIy2m19+A3QUn4EZC89ru83WzbEksm1pFlh53tH2G6esE3r7TnW73TDPmvN9cmAD7SPoeuXkjTOnVgAAhOz/A76MWIrZXFHMAAAAAElFTkSuQmCC;fontColor=#007FFF;" vertex="1" parent="1">
                    <mxGeometry x="375" y="100" width="230" height="76.67" as="geometry"/>
                </mxCell>
                <mxCell id="i234ZGSfoUT5dTkyvSWL-23" value="" style="endArrow=classic;html=1;strokeWidth=7;fontSize=23;exitX=0.5;exitY=0;exitDx=0;exitDy=0;" edge="1" parent="1" source="i234ZGSfoUT5dTkyvSWL-21">
                    <mxGeometry width="50" height="50" relative="1" as="geometry">
                        <mxPoint x="479.5" y="850" as="sourcePoint"/>
                        <mxPoint x="480" y="910" as="targetPoint"/>
                    </mxGeometry>
                </mxCell>
                <mxCell id="i234ZGSfoUT5dTkyvSWL-25" value="&lt;span style=&quot;color: rgb(90 , 108 , 134) ; font-size: 23px ; font-weight: 700&quot;&gt;GitLab CI/CD&lt;/span&gt;" style="text;html=1;align=center;verticalAlign=middle;resizable=0;points=[];autosize=1;fontColor=#007FFF;" vertex="1" parent="1">
                    <mxGeometry x="400" y="1070" width="160" height="20" as="geometry"/>
                </mxCell>
                <mxCell id="i234ZGSfoUT5dTkyvSWL-26" value="" style="points=[[0,0,0],[0.25,0,0],[0.5,0,0],[0.75,0,0],[1,0,0],[0,1,0],[0.25,1,0],[0.5,1,0],[0.75,1,0],[1,1,0],[0,0.25,0],[0,0.5,0],[0,0.75,0],[1,0.25,0],[1,0.5,0],[1,0.75,0]];outlineConnect=0;fontColor=#232F3E;gradientColor=#60A337;gradientDirection=north;fillColor=#277116;strokeColor=#ffffff;dashed=0;verticalLabelPosition=bottom;verticalAlign=top;align=center;html=1;fontSize=12;fontStyle=0;aspect=fixed;shape=mxgraph.aws4.resourceIcon;resIcon=mxgraph.aws4.s3;" vertex="1" parent="1">
                    <mxGeometry x="620" y="740" width="78" height="78" as="geometry"/>
                </mxCell>
                <mxCell id="i234ZGSfoUT5dTkyvSWL-28" value="" style="points=[[0,0,0],[0.25,0,0],[0.5,0,0],[0.75,0,0],[1,0,0],[0,1,0],[0.25,1,0],[0.5,1,0],[0.75,1,0],[1,1,0],[0,0.25,0],[0,0.5,0],[0,0.75,0],[1,0.25,0],[1,0.5,0],[1,0.75,0]];outlineConnect=0;fontColor=#232F3E;gradientColor=#F54749;gradientDirection=north;fillColor=#C7131F;strokeColor=#ffffff;dashed=0;verticalLabelPosition=bottom;verticalAlign=top;align=center;html=1;fontSize=12;fontStyle=0;aspect=fixed;shape=mxgraph.aws4.resourceIcon;resIcon=mxgraph.aws4.cognito;" vertex="1" parent="1">
                    <mxGeometry x="230" y="300" width="78" height="78" as="geometry"/>
                </mxCell>
                <mxCell id="i234ZGSfoUT5dTkyvSWL-31" value="" style="endArrow=classic;html=1;strokeWidth=7;fontSize=23;" edge="1" parent="1">
                    <mxGeometry width="50" height="50" relative="1" as="geometry">
                        <mxPoint x="270" y="440" as="sourcePoint"/>
                        <mxPoint x="270" y="383" as="targetPoint"/>
                        <Array as="points">
                            <mxPoint x="270" y="410"/>
                        </Array>
                    </mxGeometry>
                </mxCell>
                <mxCell id="i234ZGSfoUT5dTkyvSWL-34" value="" style="points=[[0,0,0],[0.25,0,0],[0.5,0,0],[0.75,0,0],[1,0,0],[0,1,0],[0.25,1,0],[0.5,1,0],[0.75,1,0],[1,1,0],[0,0.25,0],[0,0.5,0],[0,0.75,0],[1,0.25,0],[1,0.5,0],[1,0.75,0]];outlineConnect=0;fontColor=#232F3E;gradientColor=#4D72F3;gradientDirection=north;fillColor=#3334B9;strokeColor=#ffffff;dashed=0;verticalLabelPosition=bottom;verticalAlign=top;align=center;html=1;fontSize=12;fontStyle=0;aspect=fixed;shape=mxgraph.aws4.resourceIcon;resIcon=mxgraph.aws4.dynamodb;" vertex="1" parent="1">
                    <mxGeometry x="710" y="740" width="78" height="78" as="geometry"/>
                </mxCell>
                <mxCell id="i234ZGSfoUT5dTkyvSWL-36" value="Cognito" style="text;html=1;align=center;verticalAlign=middle;resizable=0;points=[];autosize=1;fontSize=23;" vertex="1" parent="1">
                    <mxGeometry x="310" y="324" width="90" height="30" as="geometry"/>
                </mxCell>
                <mxCell id="i234ZGSfoUT5dTkyvSWL-37" value="Terraform remote&lt;br&gt;backend config" style="text;html=1;align=center;verticalAlign=middle;resizable=0;points=[];autosize=1;fontSize=23;" vertex="1" parent="1">
                    <mxGeometry x="608" y="815" width="190" height="60" as="geometry"/>
                </mxCell>
            </root>
        </mxGraphModel>
    </diagram>
    <diagram id="Km2Itkpmp768VSLNfnG4" name="Page-2">
        <mxGraphModel dx="723" dy="472" grid="1" gridSize="10" guides="1" tooltips="1" connect="1" arrows="1" fold="1" page="1" pageScale="1" pageWidth="850" pageHeight="1100" math="0" shadow="0">
            <root>
                <mxCell id="NA4oK7SA8WJdhzHEE-Ll-0"/>
                <mxCell id="NA4oK7SA8WJdhzHEE-Ll-1" parent="NA4oK7SA8WJdhzHEE-Ll-0"/>
            </root>
        </mxGraphModel>
    </diagram>
</mxfile>